<svg xmlns="http://www.w3.org/2000/svg" xmlns:xlink="http://www.w3.org/1999/xlink" viewBox="0 0 1343 364"><defs><style>.cls-1{fill:url(#linear-gradient);}.cls-2{font-size:48px;}.cls-2,.cls-9{font-family:OdinRounded-Light, Odin Rounded;font-weight:300;}.cls-3{letter-spacing:-0.03em;}.cls-4{font-size:45px;}.cls-10,.cls-4{font-family:MyriadPro-Regular, Myriad Pro;font-weight:400;}.cls-5{letter-spacing:-0.05em;}.cls-6{letter-spacing:-0.04em;}.cls-7{letter-spacing:-0.04em;}.cls-8{fill:url(#linear-gradient-2);}.cls-9{font-size:37px;fill:#333;}.cls-11{letter-spacing:-0.06em;}.cls-12{letter-spacing:-0.03em;}.cls-13{fill:#c799d8;}.cls-14{fill:#ff9986;}</style><linearGradient id="linear-gradient" x1="786.4" y1="-17.01" x2="543.3" y2="404.05" gradientUnits="userSpaceOnUse"><stop offset="0" stop-color="#c799d8"/><stop offset="1" stop-color="#ff9986"/></linearGradient><linearGradient id="linear-gradient-2" x1="484.77" y1="117.16" x2="547.74" y2="117.16" gradientTransform="translate(-0.63 3.24) rotate(-0.25)" gradientUnits="userSpaceOnUse"><stop offset="0" stop-color="#db589a" stop-opacity="0.9"/><stop offset="0.13" stop-color="#d261a2" stop-opacity="0.91"/><stop offset="0.33" stop-color="#ba78b6" stop-opacity="0.93"/><stop offset="0.6" stop-color="#939fd8" stop-opacity="0.96"/><stop offset="0.87" stop-color="#6cf"/></linearGradient></defs><g id="Layer_2" data-name="Layer 2"><g id="Layer_1-2" data-name="Layer 1"><rect class="cls-1" x="457" width="429" height="364" rx="59.5"/><text class="cls-2" transform="translate(482 190.42)"><tspan class="cls-3">C</tspan><tspan x="28.7" y="0">omputi</tspan><tspan class="cls-4" x="162.96" y="0">n</tspan><tspan x="187.93" y="0">g</tspan><tspan class="cls-5" x="0" y="57.6">f</tspan><tspan x="16.85" y="57.6">or </tspan><tspan class="cls-6" x="70.99" y="57.6">e</tspan><tspan class="cls-7" x="92.49" y="57.6">v</tspan><tspan x="116.06" y="57.6">er</tspan><tspan class="cls-6" x="154.51" y="57.6">y</tspan><tspan x="177.98" y="57.6">o</tspan><tspan class="cls-4" x="204.24" y="57.6">n</tspan><tspan x="229.21" y="57.6">e</tspan></text><path class="cls-8" d="M490.11,103.42c2.08-.89,4-.53,6.67,0a24.94,24.94,0,0,1,7.34,2.88c.69.39,1.19.68,1.76,1.06,2.32,1.52,3.91,3.13,10.39,7.81.94.68,1.4,1,1.7,1.21.87.57,9.49,6,17,2.94,3.51-1.42,4.08-3.59,6.94-3.41a6.28,6.28,0,0,1,5.18,3.35,6.76,6.76,0,0,1-.26,5.64,9.31,9.31,0,0,1-3.08,3.77c-7.71,5.94-17.28,4.77-17.28,4.77a30.41,30.41,0,0,1-13.54-5.76c-.49-.39-2.05-1.45-4.14-3.18a33.91,33.91,0,0,0-4.9-3.36s-5.9-3.07-10.25-3h-2.16c-2.14.3-2.8,1.3-3.85,1.14-1.67-.25-2.52-3.14-2.65-3.56C483.79,111.57,485.47,105.39,490.11,103.42Z"/><text class="cls-9" transform="translate(553.8 129.53)">Sig<tspan class="cls-10" x="45.65" y="0">n</tspan><tspan class="cls-11" x="66.19" y="0">T</tspan><tspan class="cls-12" x="84.06" y="0">r</tspan><tspan x="94.45" y="0">ack</tspan></text><rect class="cls-13" x="914" width="429" height="364" rx="59.5"/><rect class="cls-14" width="429" height="364" rx="59.5"/></g></g></svg>