<svg xmlns="http://www.w3.org/2000/svg" xmlns:xlink="http://www.w3.org/1999/xlink" viewBox="0 0 812 812"><defs><style>.cls-1{fill:#130f55;}.cls-2{fill:url(#linear-gradient);}</style><linearGradient id="linear-gradient" x1="70.59" y1="405.33" x2="740.93" y2="405.33" gradientTransform="translate(-1.75 2.14) rotate(-0.25)" gradientUnits="userSpaceOnUse"><stop offset="0" stop-color="#db589a" stop-opacity="0.9"/><stop offset="0.13" stop-color="#d261a2" stop-opacity="0.91"/><stop offset="0.33" stop-color="#ba78b6" stop-opacity="0.93"/><stop offset="0.6" stop-color="#939fd8" stop-opacity="0.96"/><stop offset="0.87" stop-color="#6cf"/></linearGradient></defs><g id="Layer_2" data-name="Layer 2"><g id="Layer_1-2" data-name="Layer 1"><rect class="cls-1" width="812" height="812" rx="96.5"/><path class="cls-2" d="M128.79,248.7c22.2-9.46,43.08-5.64,71-.31,34.42,6.57,63.46,22.49,78.13,30.66,7.43,4.14,12.67,7.29,18.78,11.3,24.73,16.23,41.62,33.3,110.63,83.14,10,7.22,14.93,10.9,18.06,12.93,9.3,6,101.08,63.72,181.13,31.21,37.28-15.14,43.41-38.21,73.85-36.32,20.62,1.29,44.47,13.53,55.15,35.76,12.16,25.28,1.21,50.8-2.74,60-7.09,16.53-18.41,29.05-32.82,40.14C617.82,580.45,516,568,516,568s-78.31-9.58-144.09-61.35c-5.24-4.13-21.86-15.44-44.15-33.81a358.85,358.85,0,0,0-52.09-35.78s-62.88-32.73-109.21-32.52c0,0-22.79,0-23,.09h0c-22.77,3.23-29.75,13.85-40.94,12.18-17.77-2.65-26.84-33.39-28.17-37.88C61.53,335.49,79.48,269.7,128.79,248.7Z"/></g></g></svg>