<?xml version="1.0" encoding="utf-8"?>
<!-- Generator: Adobe Illustrator 25.2.0, SVG Export Plug-In . SVG Version: 6.00 Build 0)  -->
<svg version="1.1" id="Layer_1" xmlns="http://www.w3.org/2000/svg" xmlns:xlink="http://www.w3.org/1999/xlink" x="0px" y="0px"
	 viewBox="0 0 960 720" style="enable-background:new 0 0 960 720;" xml:space="preserve">
<style type="text/css">
	.st0{stroke:#000000;stroke-miterlimit:10;}
	.st1{fill:#F2F2F2;}
	.st2{fill:#FF6633;stroke:#000000;stroke-miterlimit:10;}
	.st3{fill:#FF9933;stroke:#000000;stroke-miterlimit:10;}
	.st4{fill:#009999;stroke:#000000;stroke-miterlimit:10;}
	.st5{fill:#CC9999;}
	.st6{fill:#990033;stroke:#000000;stroke-miterlimit:10;}
</style>
<rect x="0.5" y="630.5" class="st0" width="960" height="90"/>
<rect x="0.5" y="0.5" class="st0" width="960" height="90"/>
<path class="st1" d="M406.5,64h-28c-3,0-5.5-2.5-5.5-5.5v-8c0-3,2.5-5.5,5.5-5.5h28c3,0,5.5,2.5,5.5,5.5v8
	C412,61.5,409.5,64,406.5,64z"/>
<path class="st1" d="M259.5,64h-28c-3,0-5.5-2.5-5.5-5.5v-8c0-3,2.5-5.5,5.5-5.5h28c3,0,5.5,2.5,5.5,5.5v8
	C265,61.5,262.5,64,259.5,64z"/>
<path class="st1" d="M113.5,64h-28c-3,0-5.5-2.5-5.5-5.5v-8c0-3,2.5-5.5,5.5-5.5h28c3,0,5.5,2.5,5.5,5.5v8
	C119,61.5,116.5,64,113.5,64z"/>
<path class="st2" d="M448.6,49.8H335.9c-7.7,0-13.9-6.2-13.9-13.9v-6.5c0-7.7,6.2-13.9,13.9-13.9h112.8c7.7,0,13.9,6.2,13.9,13.9
	v6.5C462.5,43.6,456.3,49.8,448.6,49.8z"/>
<path class="st3" d="M302.1,50.2H189.3c-7.7,0-13.9-6.2-13.9-13.9v-6.5c0-7.7,6.2-13.9,13.9-13.9h112.8c7.7,0,13.9,6.2,13.9,13.9
	v6.5C316,44,309.7,50.2,302.1,50.2z"/>
<path class="st4" d="M156.1,50.2H43.3c-7.7,0-13.9-6.2-13.9-13.9v-6.5c0-7.7,6.2-13.9,13.9-13.9h112.8c7.7,0,13.9,6.2,13.9,13.9v6.5
	C169.9,44,163.7,50.2,156.1,50.2z"/>
<path class="st5" d="M806.6,691.5H152.4c-7.1,0-12.9-5.8-12.9-12.9v-6.2c0-7.1,5.8-12.9,12.9-12.9h654.2c7.1,0,12.9,5.8,12.9,12.9
	v6.2C819.5,685.7,813.7,691.5,806.6,691.5z"/>
<path class="st6" d="M885.6,49.1H481.9c-7.7,0-13.9-6.2-13.9-13.9v-6.5c0-7.7,6.2-13.9,13.9-13.9h403.8c7.7,0,13.9,6.2,13.9,13.9
	v6.5C899.5,42.9,893.3,49.1,885.6,49.1z"/>
<path class="st3" d="M164,675.5"/>
</svg>
